<svg width="437" height="160" viewBox="0 0 437 160" fill="none" xmlns="http://www.w3.org/2000/svg">
<path d="M40.5034 122.62C32.96 122.62 26.1917 120.76 20.1984 117.04C14.205 113.217 9.45171 108.102 5.93838 101.695C2.52838 95.185 0.823379 87.8483 0.823379 79.685C0.823379 71.5217 2.68338 64.185 6.40338 57.675C10.2267 51.165 15.3417 46.05 21.7484 42.33C28.2584 38.5067 35.5434 36.595 43.6034 36.595C51.6634 36.595 58.8967 38.5067 65.3034 42.33C71.71 46.05 76.7734 51.165 80.4934 57.675C84.3167 64.185 86.2284 71.5217 86.2284 79.685V114.25C86.2284 116.523 85.4534 118.435 83.9034 119.985C82.4567 121.432 80.5967 122.155 78.3234 122.155C76.05 122.155 74.1384 121.432 72.5884 119.985C71.1417 118.435 70.4184 116.523 70.4184 114.25V108.515C66.8017 112.855 62.41 116.317 57.2434 118.9C52.18 121.38 46.6 122.62 40.5034 122.62ZM43.6034 108.67C48.8734 108.67 53.575 107.43 57.7084 104.95C61.8417 102.367 65.0967 98.905 67.4734 94.565C69.8501 90.1217 71.0384 85.1617 71.0384 79.685C71.0384 74.105 69.8501 69.145 67.4734 64.805C65.0967 60.3617 61.8417 56.9 57.7084 54.42C53.575 51.8367 48.8734 50.545 43.6034 50.545C38.4367 50.545 33.735 51.8367 29.4984 54.42C25.365 56.9 22.0584 60.3617 19.5784 64.805C17.2017 69.145 16.0134 74.105 16.0134 79.685C16.0134 85.1617 17.2017 90.1217 19.5784 94.565C22.0584 98.905 25.365 102.367 29.4984 104.95C33.735 107.43 38.4367 108.67 43.6034 108.67ZM119.368 122C117.095 122 115.183 121.225 113.633 119.675C112.083 118.125 111.308 116.213 111.308 113.94V9.005C111.308 6.62833 112.083 4.71666 113.633 3.26999C115.183 1.72 117.095 0.944997 119.368 0.944997H156.413C163.44 0.944997 169.588 2.34 174.858 5.13C180.231 7.81666 184.416 11.5883 187.413 16.445C190.513 21.3017 192.063 26.8817 192.063 33.185C192.063 38.2483 190.668 42.8467 187.878 46.98C185.191 51.01 181.471 54.2133 176.718 56.59C183.538 58.2433 189.015 61.4983 193.148 66.355C197.281 71.2117 199.348 77.5667 199.348 85.42C199.348 92.55 197.643 98.8533 194.233 104.33C190.926 109.807 186.276 114.147 180.283 117.35C174.29 120.45 167.418 122 159.668 122H119.368ZM127.428 50.7H156.413C162.303 50.7 167.108 49.2533 170.828 46.36C174.651 43.4667 176.563 39.075 176.563 33.185C176.563 27.295 174.651 22.955 170.828 20.165C167.108 17.2717 162.303 15.825 156.413 15.825H127.428V50.7ZM127.428 107.12H159.668C166.695 107.12 172.481 105.312 177.028 101.695C181.575 97.975 183.848 92.55 183.848 85.42C183.848 78.8067 181.575 73.8467 177.028 70.54C172.481 67.2333 166.695 65.58 159.668 65.58H127.428V107.12ZM257.11 122.62C249.566 122.62 242.798 120.76 236.805 117.04C230.811 113.217 226.058 108.102 222.545 101.695C219.135 95.185 217.43 87.8483 217.43 79.685C217.43 71.5217 219.29 64.185 223.01 57.675C226.833 51.165 231.948 46.05 238.355 42.33C244.865 38.5067 252.15 36.595 260.21 36.595C268.27 36.595 275.503 38.5067 281.91 42.33C288.316 46.05 293.38 51.165 297.1 57.675C300.923 64.185 302.835 71.5217 302.835 79.685V114.25C302.835 116.523 302.06 118.435 300.51 119.985C299.063 121.432 297.203 122.155 294.93 122.155C292.656 122.155 290.745 121.432 289.195 119.985C287.748 118.435 287.025 116.523 287.025 114.25V108.515C283.408 112.855 279.016 116.317 273.85 118.9C268.786 121.38 263.206 122.62 257.11 122.62ZM260.21 108.67C265.48 108.67 270.181 107.43 274.315 104.95C278.448 102.367 281.703 98.905 284.08 94.565C286.456 90.1217 287.645 85.1617 287.645 79.685C287.645 74.105 286.456 69.145 284.08 64.805C281.703 60.3617 278.448 56.9 274.315 54.42C270.181 51.8367 265.48 50.545 260.21 50.545C255.043 50.545 250.341 51.8367 246.105 54.42C241.971 56.9 238.665 60.3617 236.185 64.805C233.808 69.145 232.62 74.105 232.62 79.685C232.62 85.1617 233.808 90.1217 236.185 94.565C238.665 98.905 241.971 102.367 246.105 104.95C250.341 107.43 255.043 108.67 260.21 108.67ZM341.555 159.2C340.521 159.2 339.281 158.89 337.835 158.27C333.288 156.203 332.048 152.948 334.115 148.505L349.615 113.63L314.74 47.445C313.706 45.4817 313.551 43.6217 314.275 41.865C315.101 40.005 316.496 38.6617 318.46 37.835C320.423 37.0083 322.283 36.9567 324.04 37.68C325.796 38.3 327.14 39.5917 328.07 41.555L356.435 97.975L381.39 41.71C383.456 37.37 386.711 36.13 391.155 37.99C395.805 39.9533 397.096 43.2083 395.03 47.755L347.6 154.395C346.36 157.598 344.345 159.2 341.555 159.2ZM406.366 122.185C404.911 122.185 403.468 121.938 402.037 121.445C400.607 120.952 399.447 120.212 398.559 119.225C398.288 118.929 398.177 118.596 398.226 118.226C398.276 117.856 398.461 117.535 398.781 117.264C399.127 117.017 399.484 116.919 399.854 116.968C400.224 117.017 400.533 117.178 400.779 117.449C401.371 118.14 402.148 118.67 403.11 119.04C404.097 119.41 405.182 119.595 406.366 119.595C408.192 119.595 409.511 119.287 410.325 118.67C411.139 118.029 411.559 117.264 411.583 116.376C411.583 115.488 411.164 114.76 410.325 114.193C409.487 113.601 408.105 113.145 406.181 112.824C403.69 112.429 401.865 111.739 400.705 110.752C399.546 109.765 398.966 108.594 398.966 107.237C398.966 105.979 399.299 104.931 399.965 104.092C400.631 103.253 401.519 102.624 402.629 102.205C403.739 101.786 404.96 101.576 406.292 101.576C407.945 101.576 409.363 101.86 410.547 102.427C411.756 102.994 412.73 103.759 413.47 104.721C413.717 105.042 413.816 105.375 413.766 105.72C413.717 106.065 413.52 106.349 413.174 106.571C412.878 106.744 412.533 106.805 412.138 106.756C411.768 106.682 411.448 106.497 411.176 106.201C409.968 104.82 408.315 104.129 406.218 104.129C404.862 104.129 403.776 104.413 402.962 104.98C402.148 105.523 401.741 106.213 401.741 107.052C401.741 107.891 402.099 108.581 402.814 109.124C403.554 109.667 404.936 110.111 406.958 110.456C408.808 110.752 410.264 111.196 411.324 111.788C412.41 112.355 413.174 113.034 413.618 113.823C414.087 114.588 414.321 115.426 414.321 116.339C414.321 117.498 413.976 118.522 413.285 119.41C412.619 120.273 411.682 120.952 410.473 121.445C409.289 121.938 407.92 122.185 406.366 122.185ZM427.163 122C425.855 122 424.684 121.692 423.648 121.075C422.636 120.458 421.835 119.62 421.243 118.559C420.651 117.474 420.355 116.24 420.355 114.859V104.98H417.95C417.58 104.98 417.271 104.869 417.025 104.647C416.778 104.4 416.655 104.104 416.655 103.759C416.655 103.389 416.778 103.093 417.025 102.871C417.271 102.624 417.58 102.501 417.95 102.501H420.355V96.766C420.355 96.3467 420.478 96.0013 420.725 95.73C420.996 95.4587 421.341 95.323 421.761 95.323C422.18 95.323 422.525 95.4587 422.797 95.73C423.068 96.0013 423.204 96.3467 423.204 96.766V102.501H427.385C427.755 102.501 428.063 102.624 428.31 102.871C428.556 103.093 428.68 103.389 428.68 103.759C428.68 104.104 428.556 104.4 428.31 104.647C428.063 104.869 427.755 104.98 427.385 104.98H423.204V114.859C423.204 116.117 423.574 117.153 424.314 117.967C425.054 118.756 426.003 119.151 427.163 119.151H428.162C428.556 119.151 428.877 119.287 429.124 119.558C429.37 119.829 429.494 120.175 429.494 120.594C429.494 121.013 429.346 121.359 429.05 121.63C428.754 121.877 428.384 122 427.94 122H427.163ZM434.797 122.592C434.205 122.592 433.7 122.382 433.28 121.963C432.861 121.544 432.651 121.038 432.651 120.446C432.651 119.829 432.861 119.311 433.28 118.892C433.724 118.473 434.23 118.263 434.797 118.263C435.389 118.263 435.895 118.485 436.314 118.929C436.734 119.348 436.943 119.854 436.943 120.446C436.943 121.013 436.734 121.519 436.314 121.963C435.92 122.382 435.414 122.592 434.797 122.592Z" fill="white"/>
</svg>
